<svg width="280" height="350" viewBox="0 0 280 350" fill="none" xmlns="http://www.w3.org/2000/svg">
<path d="M265.275 110.947L229.564 80.8543V45.0487C229.564 44.4645 229.449 43.886 229.226 43.3462C229.002 42.8065 228.674 42.3161 228.261 41.903C227.848 41.4899 227.358 41.1622 226.818 40.9386C226.278 40.7151 225.7 40.6 225.116 40.6H181.795L143.327 8.18332C142.185 7.22126 140.74 6.69369 139.247 6.69385C137.754 6.694 136.31 7.22186 135.168 8.18416L96.7179 40.6H54.8288C54.2446 40.6 53.6661 40.715 53.1264 40.9386C52.5866 41.1622 52.0962 41.4898 51.6831 41.9029C51.2699 42.316 50.9422 42.8065 50.7187 43.3462C50.4951 43.886 50.38 44.4645 50.38 45.0487V79.6656L13.275 110.947L13.4825 111.122V260.201C13.4825 261.737 14.0927 263.21 15.1788 264.296C16.2648 265.382 17.7378 265.992 19.2737 265.992H259.691C261.227 265.992 262.7 265.382 263.786 264.296C264.872 263.21 265.483 261.737 265.483 260.201V110.947H265.275ZM229.564 99.1623L243.549 110.947L229.564 122.732V99.1623ZM139.249 23.0549L160.07 40.6H118.438L139.249 23.0549ZM64.38 86.1742V54.6H215.564V134.53L168.391 174.282L157.528 183.436L139.249 198.839L121.186 183.611L110.326 174.455L64.38 135.72L64.38 86.1742ZM50.38 97.9769V123.918L34.9952 110.947L50.38 97.9769ZM27.6702 123.083L29.8813 124.947L99.4656 183.611L27.4825 244.297L27.6702 123.083ZM40.0747 251.992L110.326 192.767L135.515 214.003C136.559 214.883 137.881 215.366 139.247 215.367C140.613 215.367 141.935 214.884 142.98 214.004L168.391 192.59L238.883 251.992H40.0747ZM251.483 244.302L179.254 183.436L248.661 124.947L251.49 122.564L251.483 244.302Z" fill="white"/>
<path d="M182.114 102.348C182.117 97.5794 180.711 92.9158 178.074 88.9421C175.437 84.9685 171.686 81.8616 167.291 80.0109C162.896 78.1602 158.052 77.648 153.367 78.5385C148.682 79.4291 144.364 81.6828 140.954 85.017C138.645 82.7562 135.906 80.9804 132.9 79.7942C129.894 78.6081 126.681 78.0357 123.45 78.1106C120.219 78.1856 117.036 78.9064 114.088 80.2307C111.14 81.555 108.487 83.4559 106.285 85.8214C104.083 88.1869 102.377 90.9692 101.267 94.0044C100.157 97.0396 99.666 100.266 99.8224 103.494C99.9788 106.722 100.78 109.886 102.178 112.8C103.576 115.713 105.543 118.318 107.964 120.459L140.954 153.449L173.945 120.459C176.513 118.192 178.57 115.405 179.978 112.283C181.387 109.16 182.115 105.774 182.114 102.348Z" fill="#CC0033"/>
</svg>
