<svg width="491" height="491" viewBox="0 0 491 491" fill="none" xmlns="http://www.w3.org/2000/svg">
<circle cx="245.5" cy="245.5" r="245.5" fill="#CC0033"/>
<path d="M403.783 242.47C398.812 237.013 393.216 234.844 387.527 234.844C376.715 234.844 365.563 242.675 357.707 250.661C357.575 250.795 319.795 283.879 306.953 297.252C304.623 299.675 300.085 301.641 296.816 301.641C284.272 316.487 266.03 325.859 245.747 325.859C225.464 325.859 207.221 316.487 194.677 301.641H193.564C190.295 301.641 185.645 299.807 183.176 297.542L132.683 251.207C124.974 243.377 114.066 235.124 103.487 235.122C98.7861 235.122 94.1499 236.754 89.8879 240.776C74.9693 254.848 84.4121 273.171 96.2425 285.134C96.4881 285.375 152.957 342.492 152.957 342.492C152.957 342.492 175.166 367.357 176.747 382.43V418.438C176.747 433.107 188.009 445 201.905 445H292.735C306.629 445 317.893 433.107 317.893 418.438V382.43C319.465 367.357 340.304 342.492 340.304 342.492L395.615 284.545C405.714 273.577 415.842 255.721 403.783 242.47Z" fill="white"/>
<path d="M245.747 313.364C277.01 313.364 302.353 286.605 302.353 253.597C302.353 220.589 277.01 193.83 245.747 193.83C214.484 193.83 189.141 220.589 189.141 253.597C189.141 286.605 214.484 313.364 245.747 313.364Z" fill="white"/>
<path d="M109.597 210.625C125.944 210.625 139.195 196.634 139.195 179.375C139.195 162.116 125.944 148.125 109.597 148.125C93.2512 148.125 80 162.116 80 179.375C80 196.634 93.2512 210.625 109.597 210.625Z" fill="white"/>
<path d="M245.746 107.5C262.092 107.5 275.343 93.5089 275.343 76.25C275.343 58.9911 262.092 45 245.746 45C229.4 45 216.148 58.9911 216.148 76.25C216.148 93.5089 229.4 107.5 245.746 107.5Z" fill="white"/>
<path d="M162.853 79.375C157.485 79.375 152.05 80.9163 147.165 84.1478C133.314 93.3063 129.113 112.575 137.796 127.211C143.416 136.684 153.046 141.875 162.895 141.875C168.262 141.875 173.695 140.334 178.581 137.102C192.431 127.944 196.631 108.675 187.95 94.0387C182.329 84.5659 172.702 79.375 162.853 79.375Z" fill="white"/>
<path d="M312.904 133.974C317.791 137.209 323.225 138.75 328.596 138.75C338.443 138.75 348.068 133.562 353.69 124.093C362.379 109.459 358.179 90.1903 344.334 81.0291C339.446 77.7941 334.009 76.2531 328.639 76.2531C318.792 76.2531 309.166 81.4409 303.545 90.9106C294.859 105.544 299.056 124.81 312.904 133.974Z" fill="white"/>
<path d="M381.894 210.625C398.24 210.625 411.492 196.634 411.492 179.375C411.492 162.116 398.24 148.125 381.894 148.125C365.548 148.125 352.297 162.116 352.297 179.375C352.297 196.634 365.548 210.625 381.894 210.625Z" fill="white"/>
</svg>
