<svg width="491" height="491" viewBox="0 0 491 491" fill="none" xmlns="http://www.w3.org/2000/svg">
<circle cx="245.5" cy="245.5" r="245.5" fill="#CC0033"/>
<path d="M290.801 34C268.826 34 250.84 54.0034 250.84 78.4442C250.84 95.3579 259.481 110.245 272.069 117.75L250.216 194.277C249.101 194.201 247.975 194.001 246.844 194.001C230.021 194.001 215.033 202.516 204.76 215.668L153.685 165.807C157 159.758 158.93 152.67 158.93 145.113C158.93 123.127 142.733 105.113 122.965 105.113C103.197 105.113 87 123.127 87 145.113C87 167.099 103.197 185.112 122.965 185.112C130.119 185.112 136.826 182.776 142.446 178.724L195.894 230.668C192.7 238.484 190.899 247.107 190.899 256.223C190.899 270.102 195.181 282.935 202.138 293.306L155.683 344.973C148.609 339.557 140.148 336.223 130.957 336.223C106.775 336.223 87 358.216 87 385.111C87 412.006 106.775 434 130.957 434C155.139 434 174.914 412.006 174.914 385.111C174.914 374.819 171.978 365.371 167.047 357.472L213.377 305.945C222.733 313.772 234.286 318.445 246.844 318.445C258.234 318.445 268.832 314.719 277.689 308.167L299.418 335.389C294.006 342.975 290.801 352.514 290.801 362.889C290.801 387.33 308.787 407.333 330.762 407.333C352.738 407.333 370.723 387.33 370.723 362.889C370.723 338.449 352.738 318.445 330.762 318.445C323.895 318.445 317.442 320.43 311.781 323.862L289.552 296.223C297.748 285.395 302.789 271.422 302.789 256.223C302.789 250.549 302.083 245.065 300.791 239.834L388.456 209.835C394.25 219.07 403.862 225.112 414.68 225.112C432.242 225.112 446.649 209.088 446.649 189.557C446.649 170.025 432.242 154.002 414.68 154.002C397.119 154.002 382.711 170.025 382.711 189.557C382.711 190.778 382.711 191.978 382.835 193.168L294.297 223.446C287.722 211.736 277.765 202.698 265.949 197.89L287.428 122.752C288.53 122.854 289.676 122.89 290.8 122.89C312.776 122.89 330.761 102.886 330.761 78.4456C330.761 54.0048 312.777 34 290.801 34Z" fill="white"/>
</svg>
