<svg width="491" height="491" viewBox="0 0 491 491" fill="none" xmlns="http://www.w3.org/2000/svg">
<circle cx="245.5" cy="245.5" r="245.5" fill="#CC0033"/>
<path d="M245.456 45C151.73 45 90.1284 142.378 130.692 226.346L174.657 317.458C177.051 322.346 178.814 327.484 179.948 332.748C180.83 336.758 181.46 340.894 181.46 345.03H180.2C173.271 345.03 167.602 350.67 167.602 357.563C167.602 364.455 173.271 370.095 180.2 370.095H306.679C313.608 370.095 319.277 364.455 319.277 357.563C319.277 351.045 314.237 345.782 307.939 345.155C308.191 341.019 308.947 336.884 310.08 332.748C311.214 328.236 312.852 323.725 314.867 319.463L359.966 226.722C400.908 142.629 339.306 45 245.456 45ZM305.923 157.417L233.362 229.605C230.842 232.111 227.693 233.364 224.417 233.364C221.268 233.364 217.993 232.111 215.599 229.605L187.255 201.532C182.342 196.644 182.342 188.748 187.255 183.86C192.168 178.973 200.23 178.973 205.144 183.86L224.417 203.036L288.035 139.746C292.948 134.858 301.01 134.858 305.923 139.746C310.836 144.634 310.836 152.529 305.923 157.417Z" fill="white"/>
<path d="M319.308 395.118C319.308 388.225 313.639 382.585 306.71 382.585H180.231C173.302 382.585 167.633 388.225 167.633 395.118C167.633 402.011 173.302 407.65 180.231 407.65H306.71C313.638 407.65 319.308 402.011 319.308 395.118Z" fill="white"/>
<path d="M205.395 419.935C198.438 419.935 192.798 425.546 192.798 432.467C192.798 439.388 198.438 445 205.395 445H281.503C288.46 445 294.1 439.389 294.1 432.467C294.1 425.546 288.46 419.935 281.503 419.935H205.395Z" fill="white"/>
</svg>
